<svg xmlns="http://www.w3.org/2000/svg" width="495.999" height="496.001" viewBox="0 0 495.999 496.001">
  <g id="play" transform="translate(-8 -8)">
    <g id="Group_18" data-name="Group 18">
      <g id="Group_17" data-name="Group 17">
        <path id="Path_4" data-name="Path 4" d="M431.36,80.64c-96.848-96.853-253.872-96.852-350.722,0s-96.85,253.875,0,350.725,253.874,96.851,350.724,0,96.85-253.875,0-350.725ZM420.05,420.05c-90.6,90.6-237.5,90.6-328.1,0s-90.6-237.5,0-328.1,237.5-90.6,328.1,0S510.652,329.448,420.05,420.05Z" fill="#61aa43"/>
        <path id="Path_5" data-name="Path 5" d="M176,464.7a7.98,7.98,0,0,1-2.961-.57A224.077,224.077,0,0,1,32,256a8,8,0,0,1,16,0A208.077,208.077,0,0,0,178.977,449.276,8,8,0,0,1,176,464.7Z" fill="#61aa43"/>
        <path id="Path_6" data-name="Path 6" d="M216.009,476.3a8.07,8.07,0,0,1-1.482-.138c-5.557-1.041-11.141-2.309-16.6-3.77a8,8,0,1,1,4.136-15.456c5.063,1.356,10.245,2.534,15.4,3.5a8,8,0,0,1-1.464,15.865Z" fill="#61aa43"/>
      </g>
      <path id="Path_7" data-name="Path 7" d="M208.538,352a8,8,0,0,1-8-8V168a8,8,0,0,1,12.131-6.851l145.924,88a8,8,0,0,1,0,13.7l-145.924,88A8,8,0,0,1,208.538,352Zm8-169.833V329.833L338.971,256Z" fill="#61aa43"/>
    </g>
  </g>
</svg>
